<?xml version="1.0" encoding="UTF-8"?>
<svg version="1.1" xmlns="http://www.w3.org/2000/svg" width="500" height="500">
<path d="M0 0 C5.52400227 0.8951303 8.74474585 6.76997554 11.95849609 11.03515625 C18.28837376 19.87574741 23.92566225 29.21131785 29.67578125 38.43359375 C35.30483721 47.40591027 41.17666559 56.05932341 47.67578125 64.43359375 C48.11180664 65.00110352 48.54783203 65.56861328 48.99707031 66.15332031 C54.32351931 73.0848968 59.75576989 79.81979138 65.68359375 86.25390625 C67.47058406 88.20908388 69.17404013 90.20675084 70.86328125 92.24609375 C73.53285423 95.39500994 76.46677729 97.83907991 79.67578125 100.43359375 C80.54203125 101.32046875 81.40828125 102.20734375 82.30078125 103.12109375 C85.08713435 106.04189208 85.08713435 106.04189208 88.67578125 107.43359375 C90.45470093 106.49561792 92.23199099 105.54510928 93.92578125 104.4609375 C96.1126627 103.17712093 98.17246293 102.73702627 100.67578125 102.43359375 C97.49848076 99.16551325 94.24739823 96.25766299 90.67578125 93.43359375 C86.09195258 89.56689683 81.74317518 85.5517358 77.54541016 81.27099609 C75.77134101 79.52750636 73.9435003 77.90969535 72.05078125 76.296875 C67.22739341 72.10141668 62.69653583 67.63816694 58.17578125 63.12109375 C57.35335937 62.31091797 56.5309375 61.50074219 55.68359375 60.66601562 C54.90757812 59.89193359 54.1315625 59.11785156 53.33203125 58.3203125 C52.62884766 57.62123779 51.92566406 56.92216309 51.20117188 56.2019043 C49.67578125 54.43359375 49.67578125 54.43359375 49.67578125 52.43359375 C49.07378906 52.170625 48.47179687 51.90765625 47.8515625 51.63671875 C39.82686619 47.19936424 34.43766716 34.3542459 31.90625 25.84765625 C31.02820928 20.34784073 31.9676103 15.29942221 34.67578125 10.43359375 C39.69458184 4.10180621 45.80957938 1.51422297 53.67578125 0.43359375 C82.07127584 -1.75779768 112.75169509 7.47332121 137.67578125 20.43359375 C138.70703125 20.96855469 139.73828125 21.50351563 140.80078125 22.0546875 C147.98834284 26.0976909 156.16016365 31.2354897 158.67578125 39.43359375 C159.2276707 43.28248514 159.22415311 46.51964064 157.17578125 49.93359375 C156.68078125 50.42859375 156.18578125 50.92359375 155.67578125 51.43359375 C150.26137691 50.94636598 146.66718709 49.59734333 141.98828125 46.87109375 C115.91651282 32.340796 79.93689683 19.23814512 49.92578125 19.30859375 C48.8171875 19.30601562 47.70859375 19.3034375 46.56640625 19.30078125 C43.60682051 19.30527383 43.60682051 19.30527383 40.67578125 20.43359375 C40.95494964 37.46286551 56.94581773 51.0765064 68.39453125 62.28515625 C71.37106553 65.16258471 74.41112375 67.93756923 77.57421875 70.609375 C79.83878796 72.57508843 82.01665397 74.6235046 84.19799805 76.68066406 C90.1078314 82.23613268 96.16669524 87.43379179 102.7109375 92.23046875 C105.67578125 94.43359375 105.67578125 94.43359375 107.859375 96.38671875 C113.3112137 100.93523135 118.45995873 100.77542732 125.25 100.54077148 C147.04965167 99.85065629 169.26218295 105.34958709 185.98828125 119.80859375 C197.36765456 130.60534315 205.52879354 143.73034441 206.05078125 159.68359375 C206.13671875 163.32421875 206.13671875 163.32421875 205.67578125 166.43359375 C203.1956188 169.02020094 202.02599987 169.39318391 198.42578125 169.80859375 C186.2823412 168.59424975 176.76259836 160.24545358 167.62890625 152.76171875 C163.77030679 149.71975409 159.79258547 146.85990463 155.80078125 143.99609375 C149.65299824 139.58487625 143.54295849 135.14020143 137.51171875 130.5703125 C135.44481994 129.01302097 133.3693739 127.47583504 131.27734375 125.953125 C130.71708496 125.54223633 130.15682617 125.13134766 129.57958984 124.70800781 C128.01553715 123.56186704 126.44734356 122.42138328 124.87890625 121.28125 C124.151875 120.67152344 123.42484375 120.06179687 122.67578125 119.43359375 C122.67578125 118.77359375 122.67578125 118.11359375 122.67578125 117.43359375 C122.07765625 117.14484375 121.47953125 116.85609375 120.86328125 116.55859375 C118.67578125 115.43359375 118.67578125 115.43359375 115.67578125 113.43359375 C112.44697362 113.15228085 112.44697362 113.15228085 108.86328125 113.24609375 C107.66058594 113.25253906 106.45789063 113.25898438 105.21875 113.265625 C101.95463069 113.42037377 98.88170779 113.81990184 95.67578125 114.43359375 C96.80403665 115.56184915 97.93265439 116.68974331 99.0625 117.81640625 C100.21606885 118.97276824 101.36387434 120.13489119 102.5078125 121.30078125 C108.52989614 127.40601002 114.82463964 132.99073804 121.55078125 138.30859375 C125.9568442 141.80235839 130.14369234 145.48422703 134.296875 149.2734375 C136.45850077 151.23629308 138.65104387 153.15325635 140.86328125 155.05859375 C153.99229976 166.51326375 153.99229976 166.51326375 155.36328125 172.37109375 C154.55379337 175.97699431 153.98649116 176.26587081 150.98828125 178.18359375 C149.56553938 178.96122595 148.12870232 179.71392257 146.67578125 180.43359375 C145.80953125 180.86671875 144.94328125 181.29984375 144.05078125 181.74609375 C137.49249435 183.64454522 132.59703357 181.48496989 126.61328125 178.93359375 C124.84706749 178.20270094 123.08011304 177.47359597 121.3125 176.74609375 C120.39645996 176.36710938 119.48041992 175.988125 118.53662109 175.59765625 C113.69733179 173.62857182 108.81238473 171.78142322 103.92578125 169.93359375 C102.54120728 169.40862305 102.54120728 169.40862305 101.12866211 168.87304688 C98.97827076 168.05837741 96.82734524 167.24516003 94.67578125 166.43359375 C95.10890625 167.13226563 95.54203125 167.8309375 95.98828125 168.55078125 C96.54515625 169.46085938 97.10203125 170.3709375 97.67578125 171.30859375 C98.23265625 172.21351563 98.78953125 173.1184375 99.36328125 174.05078125 C100.67578125 176.43359375 100.67578125 176.43359375 100.67578125 178.43359375 C101.2378125 178.66433594 101.79984375 178.89507812 102.37890625 179.1328125 C105.28207566 180.77695436 107.1721561 182.78993693 109.42578125 185.24609375 C110.225 186.09816406 111.02421875 186.95023438 111.84765625 187.828125 C113.86595239 190.70462826 114.0943468 192.00504943 113.67578125 195.43359375 C111.48046875 196.20703125 111.48046875 196.20703125 108.67578125 196.43359375 C101.31815263 191.06323459 93.56228159 182.21977871 90.11328125 173.69921875 C86.77760124 166.16465467 83.1053657 161.69551617 75.40234375 158.37890625 C68.76330743 155.89284778 62.00384582 153.82598629 55.20947266 151.81054688 C50.45393155 150.387782 45.75831284 148.80669333 41.0625 147.19921875 C39.45101889 146.64938542 37.83952806 146.09958057 36.22802734 145.54980469 C35.43966492 145.28067261 34.65130249 145.01154053 33.83905029 144.73425293 C30.10829817 143.463579 26.37408915 142.20420576 22.6328125 140.96484375 C21.60269043 140.62341339 21.60269043 140.62341339 20.55175781 140.27508545 C15.43145175 138.60906942 10.27579801 137.29273359 5.00268555 136.18945312 C2.43698383 135.35602405 1.30752542 134.56071838 -0.32421875 132.43359375 C-1.38597893 125.89648203 -0.50399413 120.18164924 2.67578125 114.43359375 C5.56224883 111.54712617 7.62342212 111.67361502 11.67578125 111.43359375 C14.86975307 111.90154263 17.89898006 112.75854709 20.98828125 113.68359375 C21.88909424 113.94736816 22.78990723 114.21114258 23.71801758 114.48291016 C35.74564458 118.17003274 47.19536373 123.33423327 58.67578125 128.43359375 C60.55975058 129.2633507 62.44385679 130.09279699 64.328125 130.921875 C68.45183456 132.74200049 72.56666395 134.58077471 76.67578125 136.43359375 C76.74925781 135.11294922 76.74925781 135.11294922 76.82421875 133.765625 C76.89898437 132.60417969 76.97375 131.44273437 77.05078125 130.24609375 C77.15519531 128.52326172 77.15519531 128.52326172 77.26171875 126.765625 C77.67578125 123.43359375 77.67578125 123.43359375 78.77734375 120.8203125 C79.90445403 117.82611955 79.57678952 116.48170987 78.67578125 113.43359375 C77.19541311 111.30249876 77.19541311 111.30249876 75.25390625 109.3671875 C74.5578125 108.63435547 73.86171875 107.90152344 73.14453125 107.14648438 C72.41234375 106.39560547 71.68015625 105.64472656 70.92578125 104.87109375 C69.85070312 103.73897461 69.85070312 103.73897461 68.75390625 102.58398438 C65.23319007 98.91117844 61.70099039 95.55709833 57.67578125 92.43359375 C56.59855847 91.29967504 55.55514697 90.13252246 54.55078125 88.93359375 C51.96921656 85.90673733 49.32420847 82.95686492 46.61474609 80.04370117 C42.24824384 75.34752577 38.14300681 70.5581295 34.27734375 65.4375 C32.72236558 63.49188098 31.09096907 61.78747377 29.30078125 60.05859375 C24.65332841 55.54540066 20.70875295 50.49244061 16.67578125 45.43359375 C15.76346282 44.3121403 14.8506881 43.19105791 13.9375 42.0703125 C-4.64717388 19.0752795 -4.64717388 19.0752795 -4.57421875 7.18359375 C-4.58195313 5.90742187 -4.58195313 5.90742187 -4.58984375 4.60546875 C-4.20029036 1.42029692 -3.10248447 0.57878282 0 0 Z M132.67578125 115.43359375 C136.26511123 119.20440671 140.06178407 122.3436451 144.30078125 125.37109375 C145.63837442 126.33805274 146.97559596 127.30552595 148.3125 128.2734375 C149.37283447 129.03889893 149.37283447 129.03889893 150.45458984 129.81982422 C153.55537541 132.0726482 156.62907963 134.36129843 159.70532227 136.64746094 C166.53650028 141.71457017 173.39958251 146.73731027 180.36328125 151.62109375 C180.98581787 152.06646484 181.60835449 152.51183594 182.24975586 152.97070312 C186.54047185 155.94328805 190.72903272 157.75922572 195.67578125 159.43359375 C196.88931198 157.69696547 196.88931198 157.69696547 197.67578125 155.43359375 C194.60196111 143.67468448 183.71690213 134.36148439 173.67578125 128.43359375 C163.99475681 122.94599686 154.52650842 119.02897038 143.67578125 116.43359375 C142.96421875 116.23765625 142.25265625 116.04171875 141.51953125 115.83984375 C138.58429828 115.1930975 135.66708488 115.37606868 132.67578125 115.43359375 Z M86.67578125 122.43359375 C83.90126818 127.75141047 82.08240119 133.437453 83.67578125 139.43359375 C87.53889705 142.51658519 92.36022525 143.9045635 96.98828125 145.49609375 C97.70951172 145.75197266 98.43074219 146.00785156 99.17382812 146.27148438 C103.95780416 147.94051279 108.74476646 149.26909421 113.67578125 150.43359375 C112.284031 146.00529751 109.95566029 143.54736426 106.67578125 140.43359375 C106.06758545 139.85295166 105.45938965 139.27230957 104.83276367 138.67407227 C102.76673762 136.71120913 100.69117722 134.75888291 98.61328125 132.80859375 C97.90623047 132.14085937 97.19917969 131.473125 96.47070312 130.78515625 C95.78427734 130.140625 95.09785156 129.49609375 94.390625 128.83203125 C93.46431274 127.96070557 93.46431274 127.96070557 92.51928711 127.07177734 C90.64564827 125.40681686 88.70105626 123.90870774 86.67578125 122.43359375 Z " fill="#FBFBFB" transform="translate(169.32421875,113.56640625)"/>
<path d="M0 0 C0.67764404 -0.01417969 1.35528809 -0.02835937 2.0534668 -0.04296875 C6.70303526 0.00267679 9.89405384 0.88709767 13.8125 3.375 C28.75393955 18.71487793 27.96281767 49.82326374 27.76953125 69.75 C27.74789917 70.93722656 27.74789917 70.93722656 27.72583008 72.1484375 C27.81200696 74.36233375 28.19571142 76.25302928 28.8125 78.375 C29.080625 77.23289062 29.34875 76.09078125 29.625 74.9140625 C42.97120333 19.21629667 42.97120333 19.21629667 51.8125 10.375 C54.4375 10.75 54.4375 10.75 56.8125 11.375 C56.2565449 16.47670563 55.04536405 20.85870744 53.125 25.625 C41.66327952 55.35232801 35.31696869 86.37045301 29.86987305 117.66674805 C29.59747803 119.19421158 29.59747803 119.19421158 29.31958008 120.75253296 C28.97639353 122.67794555 28.64281977 124.60510402 28.3203125 126.53408813 C28.1658667 127.39271454 28.0114209 128.25134094 27.85229492 129.13598633 C27.72320236 129.88552078 27.5941098 130.63505524 27.46110535 131.40730286 C26.68038327 133.77580723 25.79299391 134.87320447 23.8125 136.375 C21.125 136.0625 21.125 136.0625 18.8125 135.375 C17.44149531 130.34072882 17.78698125 125.35796208 17.93359375 120.1953125 C17.96901024 118.68963211 17.96901024 118.68963211 18.00514221 117.15353394 C18.08151535 113.93553589 18.16524513 110.71778732 18.25 107.5 C19.26103915 76.60403406 19.26103915 76.60403406 17.9375 45.75 C17.84436523 44.6573584 17.75123047 43.5647168 17.65527344 42.43896484 C17.38872132 39.41608315 17.10380848 36.39557872 16.8125 33.375 C16.71630371 32.27961914 16.71630371 32.27961914 16.61816406 31.16210938 C15.86746247 22.92559807 13.81697403 15.11179196 8.8125 8.375 C4.33356281 5.58902979 1.46884854 4.88423821 -3.62109375 5.66796875 C-18.83513009 9.85935471 -28.42636254 20.96709467 -37.1875 33.375 C-37.77789062 34.19742188 -38.36828125 35.01984375 -38.9765625 35.8671875 C-45.63805754 45.64682915 -49.71808636 56.41029439 -48.1875 68.375 C-46.57295171 75.64046731 -42.68920458 79.74194854 -36.6875 84 C-31.33228101 87.26462389 -25.28077121 88.23251165 -19.1875 89.375 C-18.625 91.3125 -18.625 91.3125 -18.1875 93.375 C-19.78149326 94.96899326 -21.41748725 94.6220667 -23.625 94.6875 C-33.9530841 94.52612369 -42.70380167 89.24409509 -50.1875 82.375 C-56.97687723 73.1126708 -57.34727163 62.64417175 -55.796875 51.58984375 C-50.68758122 31.97146573 -33.90105526 13.88135338 -17.1875 3.375 C-11.69541146 0.37840425 -6.17170487 0.10095712 0 0 Z " fill="#F2F2F2" transform="translate(108.1875,290.625)"/>
<path d="M0 0 C2.77451634 4.58398352 2.34406452 9.81485133 2.3125 15 C2.30686035 15.97477295 2.3012207 16.9495459 2.29541016 17.95385742 C2.03518424 33.92425687 -0.9145129 49.11645598 -5.19384766 64.47583008 C-6.8603033 70.79494385 -7.30875788 74.82703708 -5 81 C-4.01 82.485 -4.01 82.485 -3 84 C3.18206883 83.23664889 6.17662529 79.65873389 10 75 C11.20317078 72.95605927 12.20345615 70.94973715 13.11328125 68.76171875 C14.96791773 65.0769564 16.76576826 64.07940059 20.6875 62.75 C25.09709303 61.78005255 28.59545734 62.01277492 33 63 C35.12508244 66.18762365 35.5020163 68.26512223 36 72 C38.97 72 41.94 72 45 72 C45.28875 70.55625 45.5775 69.1125 45.875 67.625 C46.75 63.25 46.75 63.25 49 61 C51.625 60.875 51.625 60.875 54 61 C54.98120464 64.05263664 54.98120464 65.94736336 54 69 C54.556875 68.484375 55.11375 67.96875 55.6875 67.4375 C58 66 58 66 60.75 66.3125 C61.4925 66.539375 62.235 66.76625 63 67 C62.52013969 72.56890517 61.70084819 77.67067568 60 83 C67.04585903 80.50459159 71.76678166 76.23321834 77 71 C78.32 71 79.64 71 81 71 C81.29579987 74.04251291 81.33455477 75.53019968 79.53125 78.0625 C72.7384108 84.54182354 66.76987292 90 57 90 C54.5 89.0625 54.5 89.0625 53 87 C52.43587007 83.06744209 52.74610136 79.76169591 54 76 C52.83984375 76.34224609 52.83984375 76.34224609 51.65625 76.69140625 C42.11673716 79.32421734 42.11673716 79.32421734 37.75 78.25 C34.09306652 77.58993974 34.09306652 77.58993974 32.0859375 79.48046875 C31.43882812 80.12628906 30.79171875 80.77210938 30.125 81.4375 C27.00939738 84.52231603 25.16769174 85.5407918 20.75 85.625 C16.88457619 85.48958706 14.92771147 84.51138553 12 82 C11.44570313 82.49371094 10.89140625 82.98742187 10.3203125 83.49609375 C9.59585938 84.13675781 8.87140625 84.77742188 8.125 85.4375 C7.40570313 86.07558594 6.68640625 86.71367187 5.9453125 87.37109375 C2.68927907 90.09753138 0.27521781 90.29907836 -3.97265625 90.19921875 C-7.15812255 89.88619605 -8.62616075 89.17601931 -11 87 C-12.5762512 84.0852273 -13.83657114 81.10031042 -15 78 C-16.175625 78.165 -17.35125 78.33 -18.5625 78.5 C-21.35110073 78.87181343 -23.59630997 78.956632 -26.4375 78.75 C-30.77756499 79.05456596 -33.1934624 80.56975896 -36.7890625 82.90625 C-39.41532021 84.20545876 -41.10368408 84.30537763 -44 84 C-46.3125 82.5 -46.3125 82.5 -48 81 C-48.53625 81.515625 -49.0725 82.03125 -49.625 82.5625 C-52 84 -52 84 -55 84 C-58.74983694 82.75005435 -59.91834739 81.31522452 -62 78 C-63.41857082 74.45357296 -63.07258962 70.77466037 -63 67 C-60.625 66.375 -60.625 66.375 -58 66 C-55.04816899 68.95183101 -54.91336012 71.95511947 -54 76 C-51.84733158 73.84733158 -51.06525538 72.15226256 -49.875 69.375 C-49.52179688 68.55773437 -49.16859375 67.74046875 -48.8046875 66.8984375 C-48.53914063 66.27195312 -48.27359375 65.64546875 -48 65 C-45.625 64.8125 -45.625 64.8125 -43 65 C-42.34 65.99 -41.68 66.98 -41 68 C-40.21625 67.360625 -39.4325 66.72125 -38.625 66.0625 C-34.51092937 62.83001594 -32.20565883 62.90359891 -27 63 C-26.67 64.32 -26.34 65.64 -26 67 C-28.64 68.65 -31.28 70.3 -34 72 C-31.98443556 71.49610889 -29.96475495 70.98788451 -28 70.3125 C-25.38148432 69.90335692 -24.34338542 70.82830729 -22 72 C-20.00044916 72.04238449 -17.99946379 72.04630911 -16 72 C-16.02320313 70.71351563 -16.04640625 69.42703125 -16.0703125 68.1015625 C-16.29382955 49.9130762 -15.42693425 31.73343562 -12.5625 13.75 C-12.45252686 13.04198242 -12.34255371 12.33396484 -12.22924805 11.60449219 C-11.47425673 7.30498763 -10.22599719 3.75743771 -8 0 C-5.01122021 -1.4943899 -3.14997454 -0.91874257 0 0 Z M-6 20 C-5 23 -5 23 -5 23 Z M-7 27 C-7 30.3 -7 33.6 -7 37 C-6.67 37 -6.34 37 -6 37 C-6 33.7 -6 30.4 -6 27 C-6.33 27 -6.66 27 -7 27 Z M-8 41 C-7 45 -7 45 -7 45 Z M21 69 C18.90649311 72.4019487 18.82057837 75.05272412 19 79 C20.32 79.33 21.64 79.66 23 80 C25.47954966 75.83565666 25.47954966 75.83565666 25.6875 71.125 C25.460625 70.42375 25.23375 69.7225 25 69 C23.68 69 22.36 69 21 69 Z " fill="#F2F2F2" transform="translate(375,295)"/>
<path d="M0 0 C0.495 2.475 0.495 2.475 1 5 C0.05125 5.556875 -0.8975 6.11375 -1.875 6.6875 C-5.08878787 9.06570302 -5.95565118 10.24034426 -7 14 C-3.80584026 13.20240932 -3.80584026 13.20240932 -1.625 10.4375 C1 8 1 8 3.75 7.625 C6 8 6 8 7 9 C7.16017882 13.16464926 6.98248196 16.94726192 6 21 C10.79299358 18.3980892 15.0809327 15.52743507 17 10.25 C17.33 9.5075 17.66 8.765 18 8 C20.5 7.125 20.5 7.125 23 7 C23.99 7.495 23.99 7.495 25 8 C25 11.3 25 14.6 25 18 C27.40588557 15.6832213 29.36493006 13.48712533 31.3125 10.75 C34 8 34 8 37.625 7.3125 C41 8 41 8 42.9375 10.375 C44 13 44 13 44 15 C50.6096383 14.22406727 50.6096383 14.22406727 55.4375 9.9375 C56.2109375 8.4834375 56.2109375 8.4834375 57 7 C60.45698565 5.27150718 64.22004417 5.51745245 68 6 C70.625 7.6875 70.625 7.6875 72 10 C71.92509796 13.07098379 71.44344796 14.48560036 69.4375 16.8125 C68.963125 17.204375 68.48875 17.59625 68 18 C73.7369313 17.34097107 77.46948615 15.16346526 82.31640625 12.1796875 C85.41666049 10.8168392 86.82206895 11.00007233 90 12 C89.9296875 13.76953125 89.9296875 13.76953125 89 16 C86.69988533 17.42065906 84.56392934 18.5702659 82.125 19.6875 C81.48691406 19.99494141 80.84882813 20.30238281 80.19140625 20.61914062 C75.07391293 23.06036656 71.22736242 24.17283956 65.5625 24.25 C64.42941406 24.27578125 63.29632813 24.3015625 62.12890625 24.328125 C59 24 59 24 57.0625 22.484375 C54.01776745 20.29309021 51.0230349 20.79254379 47.4375 21 C40.49019934 21.39965296 40.49019934 21.39965296 38.16015625 19.5 C37.77730469 19.005 37.39445312 18.51 37 18 C34.65673014 17.76729995 34.65673014 17.76729995 32.5 20.4375 C31.675 21.283125 30.85 22.12875 30 23 C26.98675805 24.50662097 24.31713623 24.17770373 21 24 C20.01 23.01 20.01 23.01 19 22 C15.11183937 21.5690287 15.11183937 21.5690287 13.18359375 23.5390625 C12.31927734 24.57160156 12.31927734 24.57160156 11.4375 25.625 C10.85871094 26.29789062 10.27992188 26.97078125 9.68359375 27.6640625 C6.27948031 32.38717117 4.69702331 36.47395976 4.125 42.25 C2.40941234 55.51064887 -0.2391858 69.2391858 -10 79 C-17.19532771 79.57105775 -17.19532771 79.57105775 -19.9375 77.625 C-22.43575799 73.80413484 -22.5877791 70.44841909 -22 66 C-19.34661659 56.37004815 -15.30373031 47.89493581 -9.42578125 39.84375 C-4.97649308 33.65733421 -2.92920316 27.34232026 -1 20 C-1.58007812 20.09539062 -2.16015625 20.19078125 -2.7578125 20.2890625 C-7.88144507 21.01617867 -11.07462584 20.79104515 -16 19 C-17.6777567 19.27206865 -19.34450469 19.61500109 -21 20 C-22.45885926 19.90347812 -23.91717103 19.79850221 -25.375 19.6875 C-28.1857234 19.62720395 -29.52949282 19.65570183 -31.8203125 21.33203125 C-32.37460938 21.88246094 -32.92890625 22.43289063 -33.5 23 C-36.18536814 25.62903174 -37.90495815 26.52786051 -41.6875 26.75 C-45.27552128 26.48059226 -45.8506956 26.14566283 -48.5625 23.5 C-50.80490218 18.04023817 -50.76472896 14.1734402 -48.8125 8.625 C-46.62177664 5.45222824 -45.73385512 4.87388099 -42 4 C-33.04189636 2.65270121 -33.04189636 2.65270121 -29 4 C-28.34 7.3 -27.68 10.6 -27 14 C-25.741875 13.855625 -24.48375 13.71125 -23.1875 13.5625 C-22.12595703 13.44068359 -22.12595703 13.44068359 -21.04296875 13.31640625 C-18.80603607 13.02829265 -18.80603607 13.02829265 -16 12 C-15.566875 11.113125 -15.13375 10.22625 -14.6875 9.3125 C-11.2316578 2.52880976 -8.02488597 -0.96298632 0 0 Z M-39 9 C-41.72691459 11.01554557 -42.02980829 12.14158939 -42.75 15.5625 C-43.28392528 18.85791064 -43.28392528 18.85791064 -42 21 C-40.05000871 20.80528889 -40.05000871 20.80528889 -38 20 C-35.9242124 17.09389736 -35.53705132 14.51840997 -36 11 C-36.99 10.34 -37.98 9.68 -39 9 Z M-7 51 C-11.75106805 55.92074905 -14.84549592 62.98289396 -15.109375 69.84375 C-15.07328125 70.5553125 -15.0371875 71.266875 -15 72 C-14.01 72 -13.02 72 -12 72 C-10.96588523 69.25435036 -9.94748843 66.5045139 -8.9375 63.75 C-8.49567383 62.58404297 -8.49567383 62.58404297 -8.04492188 61.39453125 C-7.77099609 60.64042969 -7.49707031 59.88632812 -7.21484375 59.109375 C-6.95823975 58.41811523 -6.70163574 57.72685547 -6.43725586 57.01464844 C-5.93047944 54.67968529 -6.25785861 53.24624397 -7 51 Z " fill="#F3F3F3" transform="translate(202,354)"/>
<path d="M0 0 C32.17772627 0.09617471 72.30492529 12.63078981 99.23828125 30.16015625 C101.56231162 31.68947296 101.56231162 31.68947296 105.375 32.4375 C106.365 27.9825 106.365 27.9825 107.375 23.4375 C107.705 23.4375 108.035 23.4375 108.375 23.4375 C108.42899736 24.89542884 108.46779177 26.35392712 108.5 27.8125 C108.52320313 28.62460938 108.54640625 29.43671875 108.5703125 30.2734375 C108.375 32.4375 108.375 32.4375 106.375 34.4375 C100.959531 34.18024873 97.32484664 32.57703436 92.6875 29.875 C66.61573157 15.34470225 30.63611558 2.24205137 0.625 2.3125 C-0.48359375 2.30992187 -1.5921875 2.30734375 -2.734375 2.3046875 C-5.69396074 2.30918008 -5.69396074 2.30918008 -8.625 3.4375 C-8.955 5.4175 -9.285 7.3975 -9.625 9.4375 C-10.285 8.7775 -10.945 8.1175 -11.625 7.4375 C-10.85999563 -0.21254369 -6.69885729 0.01468908 0 0 Z " fill="#AFAFAF" transform="translate(218.625,130.5625)"/>
<path d="M0 0 C1.65 0 3.3 0 5 0 C5 0.99 5 1.98 5 3 C4.34 3 3.68 3 3 3 C2.9175 3.86625 2.835 4.7325 2.75 5.625 C1.69952939 10.35211773 -0.6014777 13.6014777 -4 17 C-5.98821313 17.39764263 -7.98944339 17.73775349 -10 18 C-14.79648466 12.42988878 -15.14010144 9.28527473 -15 2 C-12.625 1.375 -12.625 1.375 -10 1 C-7.04816899 3.95183101 -6.91336012 6.95511947 -6 11 C-3.84733158 8.84733158 -3.06525538 7.15226256 -1.875 4.375 C-1.52179688 3.55773437 -1.16859375 2.74046875 -0.8046875 1.8984375 C-0.53914063 1.27195312 -0.27359375 0.64546875 0 0 Z " fill="#F6F6F6" transform="translate(327,360)"/>
<path d="M0 0 C0.33 0.66 0.66 1.32 1 2 C-0.42753029 5.75665866 -2.1332843 9.25925351 -4 12.8125 C-8.56682448 21.96364636 -9.5757108 30.84632046 -10 41 C-13.15511164 36.26733254 -12.51613843 31.54032134 -12 26 C-10.24004195 17.90630071 -6.02830587 6.02830587 0 0 Z " fill="#A6A6A6" transform="translate(69,321)"/>
<path d="M0 0 C9.03954449 3.85452438 14.5779591 16.17234405 19.79541016 24.16943359 C20.92212322 25.88165381 22.07537023 27.57633079 23.23046875 29.26953125 C24.19919922 30.71392578 24.19919922 30.71392578 25.1875 32.1875 C25.75855469 33.02667969 26.32960937 33.86585938 26.91796875 34.73046875 C28.20197659 37.42364043 27.8423946 38.24238051 27 41 C26.34515625 39.89785156 25.6903125 38.79570312 25.015625 37.66015625 C18.85174731 27.38055731 12.28831493 17.51773394 5.27783203 7.79882812 C3.4583059 5.23744705 1.72479597 2.62593051 0 0 Z " fill="#DCDCDC" transform="translate(171,115)"/>
<path d="M0 0 C0.66 0 1.32 0 2 0 C-0.68211078 11.58040773 -4.10160313 22.772617 -8 34 C-8.66 34 -9.32 34 -10 34 C-10.33 34.66 -10.66 35.32 -11 36 C-9.62247021 29.24321636 -7.73397408 22.8321524 -5.5 16.3125 C-5.19191406 15.40177734 -4.88382813 14.49105469 -4.56640625 13.55273438 C-3.97578489 11.80748627 -3.38343896 10.06282047 -2.7890625 8.31884766 C-1.84688218 5.5500269 -0.92073601 2.77601908 0 0 Z " fill="#A5A5A5" transform="translate(162,303)"/>
<path d="M0 0 C0 0.33 0 0.66 0 1 C-0.72703125 1.13535156 -1.4540625 1.27070313 -2.203125 1.41015625 C-15.82995413 4.32769531 -25.2597193 11.47063089 -35 21 C-35 18 -35 18 -33.8203125 16.421875 C-24.22517536 6.95938953 -13.89666316 -0.88232782 0 0 Z " fill="#707070" transform="translate(111,294)"/>
<path d="M0 0 C0.33 0 0.66 0 1 0 C0.49279908 10.82873964 -1.87575751 21.39945425 -4 32 C-4.99 32 -5.98 32 -7 32 C-6.16875478 27.60248133 -5.33247688 23.2059595 -4.49145508 18.81030273 C-4.20587747 17.31382404 -3.92169368 15.81707867 -3.63891602 14.32006836 C-3.23296626 12.17230265 -2.82206571 10.02553586 -2.41015625 7.87890625 C-2.16402588 6.5854126 -1.91789551 5.29191895 -1.66430664 3.95922852 C-1 1 -1 1 0 0 Z " fill="#8A8A8A" transform="translate(139,392)"/>
<path d="M0 0 C0.33 0 0.66 0 1 0 C1.30708666 6.07533611 0.18566079 11.37755311 -1.3125 17.25 C-1.52583984 18.1471875 -1.73917969 19.044375 -1.95898438 19.96875 C-2.17490234 20.82984375 -2.39082031 21.6909375 -2.61328125 22.578125 C-2.90392456 23.74456543 -2.90392456 23.74456543 -3.20043945 24.93457031 C-4.09018925 27.23297742 -5.15227543 28.40027716 -7 30 C-6.43240789 22.99490754 -4.95346459 16.6589411 -2.9375 9.9375 C-2.65583984 8.97650391 -2.37417969 8.01550781 -2.08398438 7.02539062 C-1.39598716 4.68153571 -0.7012399 2.33992007 0 0 Z " fill="#ACACAC" transform="translate(150,341)"/>
<path d="M0 0 C9.63163792 4.38564777 15.56831565 14.56131625 19.9375 23.8125 C21.02781534 27.08344601 21.25042728 29.57749382 21 33 C18.63365042 30.63365042 18.00195289 28.68430639 16.8125 25.5625 C13.13716371 16.57355436 8.46599138 8.83908658 1.28515625 2.2421875 C0.86105469 1.83226562 0.43695313 1.42234375 0 1 C0 0.67 0 0.34 0 0 Z " fill="#D3D3D3" transform="translate(352,232)"/>
<path d="M0 0 C6.22824823 1.0562276 11.8535974 3.58878597 17.6875 5.9375 C18.84056641 6.39318359 19.99363281 6.84886719 21.18164062 7.31835938 C22.28056641 7.75857422 23.37949219 8.19878906 24.51171875 8.65234375 C25.51678467 9.05445068 26.52185059 9.45655762 27.55737305 9.87084961 C30 11 30 11 32 13 C25.19313384 12.46896789 19.3494842 9.98585548 13.0625 7.4375 C11.99708984 7.01275391 10.93167969 6.58800781 9.83398438 6.15039062 C7.21983575 5.1070757 4.60872048 4.05679767 2 3 C2 2.34 2 1.68 2 1 C1.34 0.67 0.68 0.34 0 0 Z " fill="#D2D2D2" transform="translate(267,279)"/>
<path d="M0 0 C0.66 1.32 1.32 2.64 2 4 C-5.19782712 11.71469236 -11.14973154 17.41873562 -22 18 C-22 17.34 -22 16.68 -22 16 C-21.32195312 15.81566406 -20.64390625 15.63132812 -19.9453125 15.44140625 C-12.06769995 12.98647159 -6.51202515 9.15849723 -1 3 C-0.67 2.01 -0.34 1.02 0 0 Z " fill="#8B8B8B" transform="translate(454,367)"/>
<path d="M0 0 C1.11084961 0.02707031 1.11084961 0.02707031 2.24414062 0.0546875 C4.0591571 0.10152663 5.87350166 0.17326211 7.6875 0.25 C6.6975 0.58 5.7075 0.91 4.6875 1.25 C4.6875 1.91 4.6875 2.57 4.6875 3.25 C1.44028201 3.88360351 -1.31049445 4.25015136 -4.625 4 C-9.09069191 4.30275877 -11.51374192 5.83838058 -15.19921875 8.25390625 C-17.3125 9.25 -17.3125 9.25 -19.58203125 8.90234375 C-20.15308594 8.68707031 -20.72414063 8.47179687 -21.3125 8.25 C-20.53326172 7.88648438 -20.53326172 7.88648438 -19.73828125 7.515625 C-18.69220703 7.01289063 -18.69220703 7.01289063 -17.625 6.5 C-16.94050781 6.17515625 -16.25601562 5.8503125 -15.55078125 5.515625 C-13.17506401 4.29037025 -13.17506401 4.29037025 -11.0625 2.125 C-7.29574741 -0.4432404 -4.4377833 -0.20622407 0 0 Z " fill="#C1C1C1" transform="translate(353.3125,369.75)"/>
<path d="M0 0 C2.4375 0.625 2.4375 0.625 5 2 C6.1875 4.8125 6.1875 4.8125 6 8 C3.11938104 10.94608758 0.91531989 12.69489337 -3 14 C-3.99 13.34 -4.98 12.68 -6 12 C-6 11.01 -6 10.02 -6 9 C-1.545 8.505 -1.545 8.505 3 8 C1.69844994 3.92035719 1.69844994 3.92035719 0 0 Z " fill="#DADADA" transform="translate(268,360)"/>
<path d="M0 0 C0 2 0 2 -2.0625 4.125 C-2.51367188 4.55425781 -2.96484375 4.98351562 -3.4296875 5.42578125 C-5.9403217 7.94266081 -8.17406847 10.69660986 -10.44921875 13.42578125 C-10.96097656 13.94527344 -11.47273437 14.46476562 -12 15 C-12.66 15 -13.32 15 -14 15 C-14.66 19.95 -15.32 24.9 -16 30 C-16.33 30 -16.66 30 -17 30 C-17.31642051 21.14022581 -16.65817206 15.50636017 -10.625 8.75 C-9.10105479 7.14960269 -7.55997454 5.56529869 -6 4 C-4.92878906 2.86304688 -4.92878906 2.86304688 -3.8359375 1.703125 C-2 0 -2 0 0 0 Z " fill="#686868" transform="translate(220,372)"/>
<path d="M0 0 C0.33 1.32 0.66 2.64 1 4 C0.34 4 -0.32 4 -1 4 C-1.3403125 5.36125 -1.3403125 5.36125 -1.6875 6.75 C-2.68576706 10.30903908 -4.08983566 13.61202076 -5.5625 17 C-7.45545578 21.43174353 -8.6729175 25.20278997 -9 30 C-9.33 30 -9.66 30 -10 30 C-11.73847918 18.60330316 -6.15138186 9.22707279 0 0 Z " fill="#9C9C9C" transform="translate(196,398)"/>
<path d="M0 0 C6.44860204 -0.29854639 11.81283071 0.74174144 18 2.5 C18.87011719 2.73847656 19.74023438 2.97695312 20.63671875 3.22265625 C22.76048675 3.806109 24.88124079 4.39866134 27 5 C27 5.33 27 5.66 27 6 C25.24967156 5.85816304 23.49974466 5.71136571 21.75 5.5625 C20.77546875 5.48128906 19.8009375 5.40007812 18.796875 5.31640625 C16 5 16 5 13.92578125 4.453125 C11.66656793 3.92154539 9.74870048 4.04280555 7.4375 4.1875 C5.0625 4.23046875 5.0625 4.23046875 3 4 C0.9375 2 0.9375 2 0 0 Z " fill="#ABABAB" transform="translate(297,226)"/>
<path d="M0 0 C1.33445852 3.76243167 0.68750193 6.74920789 0 10.625 C-0.94855586 16.67046268 -1.02653893 21.97948791 0 28 C-2 27 -2 27 -3.1875 24.0625 C-5.28257225 15.91499682 -2.61362014 7.72579537 0 0 Z " fill="#A8A8A8" transform="translate(369,350)"/>
<path d="M0 0 C3.41698625 1.44071606 5.31958785 3.23230565 7.6875 6.0625 C8.28949219 6.77535156 8.89148438 7.48820312 9.51171875 8.22265625 C10.24841797 9.10244141 10.24841797 9.10244141 11 10 C11.33 10.33 11.66 10.66 12 11 C12.04063832 12.66617115 12.042721 14.33388095 12 16 C10.35 16.33 8.7 16.66 7 17 C5.68 15.35 4.36 13.7 3 12 C3.598125 12.309375 4.19625 12.61875 4.8125 12.9375 C7.08956772 14.10209704 7.08956772 14.10209704 10 15 C9.52492969 10.72436721 7.04697466 8.83439503 4 6 C2.63015802 4.70420353 1.2848951 3.38007251 0 2 C0 1.34 0 0.68 0 0 Z " fill="#F1F1F1" transform="translate(271,293)"/>
<path d="M0 0 C6.93 0.495 6.93 0.495 14 1 C14 1.33 14 1.66 14 2 C12.948125 1.98646484 12.948125 1.98646484 11.875 1.97265625 C4.8382826 2.19255367 1.82203898 3.50934452 -3.07421875 8.4765625 C-5.37284861 10.29495123 -6.60375422 10.46793341 -9.5 10.4375 C-10.655 10.293125 -11.81 10.14875 -13 10 C-13 9.67 -13 9.34 -13 9 C-12.39671875 8.85304688 -11.7934375 8.70609375 -11.171875 8.5546875 C-5.43495037 6.98052609 -5.43495037 6.98052609 -1.4375 2.8125 C-0.7259375 1.4203125 -0.7259375 1.4203125 0 0 Z " fill="#878787" transform="translate(406,370)"/>
<path d="M0 0 C7.88259207 2.27125534 15.02551941 5.69284309 22 10 C22.33 10.66 22.66 11.32 23 12 C18.11062454 11.3768443 14.19747025 9.28672194 9.875 7.0625 C9.15957031 6.70220703 8.44414062 6.34191406 7.70703125 5.97070312 C4.67232909 4.43066268 1.83883639 2.89255759 -1 1 C-0.67 0.67 -0.34 0.34 0 0 Z " fill="#CFCFCF" transform="translate(325,232)"/>
<path d="M0 0 C0.66 0.33 1.32 0.66 2 1 C0.58211913 3.83576173 -1.51563111 4.35832224 -4.390625 5.40234375 C-9.51849721 6.57684143 -14.77353059 6.21511383 -20 6 C-20 5.34 -20 4.68 -20 4 C-18.83984375 3.94392578 -18.83984375 3.94392578 -17.65625 3.88671875 C-11.13294447 3.47497546 -6.02925854 2.45636459 0 0 Z " fill="#898989" transform="translate(281,372)"/>
<path d="M0 0 C0.66 0 1.32 0 2 0 C0.63310446 3.15069422 -0.85657885 5.00891774 -3.5 7.1875 C-4.1084375 7.69667969 -4.716875 8.20585937 -5.34375 8.73046875 C-9.16240066 11.65750051 -12.31881531 11.07550298 -17 11 C-17.33 10.34 -17.66 9.68 -18 9 C-17.33613281 8.89042969 -16.67226563 8.78085937 -15.98828125 8.66796875 C-8.81041538 7.37909648 -4.38934555 6.06147719 0 0 Z " fill="#858585" transform="translate(386,374)"/>
<path d="M0 0 C1.32 0.33 2.64 0.66 4 1 C4 2.32 4 3.64 4 5 C2.576875 5.928125 2.576875 5.928125 1.125 6.875 C-2.49190767 9.33449722 -3.05169442 10.82745543 -4 15 C-4.66 15 -5.32 15 -6 15 C-5.74297526 10.6305794 -5.39976667 8.48177009 -2.5625 5.0625 C0 3 0 3 2 3 C2 2.34 2 1.68 2 1 C1.34 0.67 0.68 0.34 0 0 Z " fill="#B9B9B9" transform="translate(199,354)"/>
<path d="M0 0 C0.33 0.33 0.66 0.66 1 1 C2.68608966 1.07205511 4.37500659 1.08386068 6.0625 1.0625 C6.98160156 1.05347656 7.90070313 1.04445313 8.84765625 1.03515625 C9.55792969 1.02355469 10.26820313 1.01195312 11 1 C9.02 1.99 9.02 1.99 7 3 C7 3.66 7 4.32 7 5 C1.25 4.125 1.25 4.125 -1 3 C-3.0374763 2.77141886 -5.08040303 2.58975722 -7.125 2.4375 C-8.76855469 2.31181641 -8.76855469 2.31181641 -10.4453125 2.18359375 C-11.28835937 2.12300781 -12.13140625 2.06242187 -13 2 C-13 1.67 -13 1.34 -13 1 C-8.62344926 0.29975188 -4.43577642 -0.21122745 0 0 Z " fill="#8D8D8D" transform="translate(189,370)"/>
<path d="M0 0 C3.69988244 1.23329415 3.9185412 2.16633343 5.75 5.5 C8.7405551 10.71468652 12.20342963 15.34976292 16 20 C15.67 20.66 15.34 21.32 15 22 C13.24717575 19.79385914 11.49769955 17.5851951 9.75 15.375 C9.01330078 14.44880859 9.01330078 14.44880859 8.26171875 13.50390625 C0 3.0390625 0 3.0390625 0 0 Z " fill="#E0E0E0" transform="translate(203,161)"/>
<path d="M0 0 C-0.125 1.8125 -0.125 1.8125 -1 4 C-2.98166034 5.0358679 -4.98473831 6.03112419 -7 7 C-8.70496537 8.62746694 -10.37897032 10.28891311 -12 12 C-12.99 12.495 -12.99 12.495 -14 13 C-12.15651681 7.62317402 -9.85042071 4.07324401 -4.875 1.1875 C-2 0 -2 0 0 0 Z " fill="#888888" transform="translate(349,359)"/>
<path d="M0 0 C5.92389681 5.07762583 9.82784672 11.81711552 10.8125 19.625 C10.874375 20.73875 10.93625 21.8525 11 23 C8.64765232 20.64765232 8.16363458 18.89165502 7.125 15.75 C5.55330215 11.24682077 3.73440872 7.86588819 1 4 C0.25 1.625 0.25 1.625 0 0 Z " fill="#C2C2C2" transform="translate(120,293)"/>
<path d="M0 0 C0.66 0.66 1.32 1.32 2 2 C1.2884375 3.6396875 1.2884375 3.6396875 0.5625 5.3125 C-1.38708745 10.43476513 -1.71029954 15.56561888 -2 21 C-2.66 20.67 -3.32 20.34 -4 20 C-4.42579451 12.30415843 -3.46674047 6.93348093 0 0 Z " fill="#7B7B7B" transform="translate(255,233)"/>
<path d="M0 0 C2.95399506 1.35153828 5.23557476 2.8967985 7.671875 5.0390625 C8.33574219 5.61914062 8.99960937 6.19921875 9.68359375 6.796875 C10.36550781 7.40015625 11.04742187 8.0034375 11.75 8.625 C12.44738281 9.23601562 13.14476562 9.84703125 13.86328125 10.4765625 C15.5788674 11.98063803 17.29093409 13.48852498 19 15 C15.32487516 15 14.55903201 14.14383355 11.75 11.875 C10.96238281 11.23949219 10.17476563 10.60398438 9.36328125 9.94921875 C8.58339844 9.30597656 7.80351562 8.66273438 7 8 C6.29230469 7.42894531 5.58460938 6.85789063 4.85546875 6.26953125 C3.19287065 4.89814178 1.59012755 3.45479755 0 2 C0 1.34 0 0.68 0 0 Z " fill="#F0F0F0" transform="translate(253,199)"/>
<path d="M0 0 C0 3 0 3 -1.35546875 4.54296875 C-1.96003906 5.08566406 -2.56460938 5.62835938 -3.1875 6.1875 C-6.9142636 9.73247025 -9.48474674 13.53745389 -12 18 C-13 15 -13 15 -12.4140625 12.64453125 C-10.63051503 9.30900187 -8.2059709 7.1125068 -5.375 4.6875 C-4.859375 4.23310547 -4.34375 3.77871094 -3.8125 3.31054688 C-2.5487557 2.19891994 -1.27532824 1.0983178 0 0 Z " fill="#CECECE" transform="translate(82,308)"/>
<path d="M0 0 C1.32 0.66 2.64 1.32 4 2 C3.071875 2.7734375 3.071875 2.7734375 2.125 3.5625 C-0.47476742 6.54458615 -1.11949123 9.18446201 -2 13 C-2.66 13 -3.32 13 -4 13 C-4.45732667 7.28341664 -3.52273754 4.51350747 0 0 Z " fill="#E8E8E8" transform="translate(161,360)"/>
<path d="M0 0 C0.33 0 0.66 0 1 0 C1 3.63 1 7.26 1 11 C0.34 11 -0.32 11 -1 11 C-1.12375 12.258125 -1.2475 13.51625 -1.375 14.8125 C-1.69868059 18.10325263 -2.06604999 19.09907498 -4 22 C-3.25403037 14.5403037 -1.63253871 7.31048782 0 0 Z " fill="#515151" transform="translate(374,327)"/>
<path d="M0 0 C0.33 0 0.66 0 1 0 C2.10720735 4.42882939 2.22325051 8.46057302 2 13 C0 15 0 15 -1.9453125 15.1953125 C-3.96354167 15.13020833 -5.98177083 15.06510417 -8 15 C-8 14.67 -8 14.34 -8 14 C-5.69 13.34 -3.38 12.68 -1 12 C-0.67 8.04 -0.34 4.08 0 0 Z " fill="#959595" transform="translate(373,267)"/>
<path d="M0 0 C0 0.33 0 0.66 0 1 C-0.83144531 1.19335938 -1.66289063 1.38671875 -2.51953125 1.5859375 C-3.60621094 1.84632813 -4.69289063 2.10671875 -5.8125 2.375 C-6.89144531 2.63023437 -7.97039062 2.88546875 -9.08203125 3.1484375 C-12.15533343 3.88732881 -12.15533343 3.88732881 -15 6 C-17.1875 5.625 -17.1875 5.625 -19 5 C-12.3723673 1.1258097 -7.70288993 -0.6212008 0 0 Z " fill="#666666" transform="translate(111,294)"/>
<path d="M0 0 C0.75 1.75 0.75 1.75 1 4 C-0.4375 6.25 -0.4375 6.25 -3 8 C-5.75904254 8.33634042 -8.20306377 8.18646242 -11 8 C-11 7.34 -11 6.68 -11 6 C-9.741875 5.7525 -8.48375 5.505 -7.1875 5.25 C-4.16442273 4.51162006 -3.1940517 4.20617994 -1 1.875 C-0.67 1.25625 -0.34 0.6375 0 0 Z " fill="#9A9A9A" transform="translate(195,425)"/>
<path d="M0 0 C1.63210038 5.45269898 1.05431188 10.8455366 -1.4375 15.9375 C-3 18 -3 18 -5 20 C-3.56390017 13.26137773 -1.85991713 6.63370443 0 0 Z " fill="#686868" transform="translate(202,403)"/>
<path d="M0 0 C0.99 0.66 1.98 1.32 3 2 C2.01 2.495 2.01 2.495 1 3 C-0.74199701 6.58646443 -1.45119974 10.06693147 -2 14 C-2.66 13.67 -3.32 13.34 -4 13 C-4.45732667 7.28341664 -3.52273754 4.51350747 0 0 Z " fill="#9B9B9B" transform="translate(396,360)"/>
<path d="M0 0 C0.33 0 0.66 0 1 0 C1.05399736 1.45792884 1.09279177 2.91642712 1.125 4.375 C1.14820313 5.18710938 1.17140625 5.99921875 1.1953125 6.8359375 C1 9 1 9 -1 11 C-4.625 10.625 -4.625 10.625 -8 10 C-8.33 9.01 -8.66 8.02 -9 7 C-6.69 7.66 -4.38 8.32 -2 9 C-1.34 6.03 -0.68 3.06 0 0 Z " fill="#A1A1A1" transform="translate(326,154)"/>
<path d="M0 0 C1.32 0.33 2.64 0.66 4 1 C-4.66488327 9.91245136 -4.66488327 9.91245136 -9.8125 10.25 C-10.864375 10.1675 -11.91625 10.085 -13 10 C-13 9.67 -13 9.34 -13 9 C-12.39671875 8.85304688 -11.7934375 8.70609375 -11.171875 8.5546875 C-5.43495037 6.98052609 -5.43495037 6.98052609 -1.4375 2.8125 C-0.7259375 1.4203125 -0.7259375 1.4203125 0 0 Z " fill="#717171" transform="translate(171,370)"/>
<path d="M0 0 C0.66 1.32 1.32 2.64 2 4 C0.71451591 5.33929505 -0.57858155 6.67128643 -1.875 8 C-2.59429687 8.7425 -3.31359375 9.485 -4.0546875 10.25 C-6 12 -6 12 -8 12 C-6.43909056 8.16867684 -3.8924866 5.8924866 -1 3 C-0.67 2.01 -0.34 1.02 0 0 Z " fill="#A0A0A0" transform="translate(454,367)"/>
<path d="M0 0 C0.99 0.33 1.98 0.66 3 1 C-0.79156687 4.34018986 -4.23336149 7.13479363 -9 9 C-11.1796875 8.5703125 -11.1796875 8.5703125 -13 8 C-12.22076172 7.63648438 -12.22076172 7.63648438 -11.42578125 7.265625 C-8.0094243 5.6237529 -5.13509857 4.11108105 -2.1875 1.6875 C-1.465625 1.130625 -0.74375 0.57375 0 0 Z " fill="#737373" transform="translate(345,370)"/>
<path d="M0 0 C0.66 0.33 1.32 0.66 2 1 C-2.16155089 7.8368336 -2.16155089 7.8368336 -6 9 C-8.75 9.125 -8.75 9.125 -11 9 C-8 7 -8 7 -6.0625 6.1875 C-3.33237408 4.61560932 -1.85206039 2.51351053 0 0 Z " fill="#818181" transform="translate(236,369)"/>
<path d="M0 0 C0.33 0 0.66 0 1 0 C1.19392201 5.52677733 0.7479503 9.75614911 -1 15 C-1.66 15 -2.32 15 -3 15 C-2.69052329 13.06201479 -2.37731166 11.12462574 -2.0625 9.1875 C-1.88847656 8.10855469 -1.71445312 7.02960938 -1.53515625 5.91796875 C-1 3 -1 3 0 0 Z " fill="#9B9B9B" transform="translate(436,363)"/>
<path d="M0 0 C1.58624235 0.42683239 3.1689098 0.86696158 4.75 1.3125 C6.07257813 1.67794922 6.07257813 1.67794922 7.421875 2.05078125 C10.05772505 3.02125331 11.85407326 4.21005644 14 6 C8.72250715 5.46148032 4.74354436 4.22656164 0 2 C0 1.34 0 0.68 0 0 Z " fill="#C3C3C3" transform="translate(285,286)"/>
<path d="M0 0 C0.33 0.99 0.66 1.98 1 3 C-0.5625 6.125 -0.5625 6.125 -3 9 C-6.25 9.875 -6.25 9.875 -9 10 C-9.33 9.34 -9.66 8.68 -10 8 C-9.0925 7.79375 -8.185 7.5875 -7.25 7.375 C-3.24267224 5.6795921 -2.10515339 3.72450216 0 0 Z " fill="#717171" transform="translate(328,369)"/>
<path d="M0 0 C1.12758089 3.38274266 0.81750262 4.76778223 0.0625 8.1875 C-0.13214844 9.08855469 -0.32679688 9.98960937 -0.52734375 10.91796875 C-0.68332031 11.60503906 -0.83929688 12.29210937 -1 13 C-1.66 13 -2.32 13 -3 13 C-3.33 13.66 -3.66 14.32 -4 15 C-2.9318153 9.88634986 -1.76892524 4.92772031 0 0 Z " fill="#919191" transform="translate(155,324)"/>
<path d="M0 0 C4.43166995 1.39281055 7.06626776 3.39570039 10 7 C10.3125 9.8125 10.3125 9.8125 10 12 C9.5875 11.443125 9.175 10.88625 8.75 10.3125 C6.00917125 6.69069059 3.29943492 3.13446317 0 0 Z " fill="#DEDEDE" transform="translate(316,141)"/>
<path d="M0 0 C-1 2 -1 2 -3.1875 3.125 C-6.26769331 4.08328236 -8.79309948 4.14915816 -12 4 C-9.94577945 1.94577945 -8.66990976 1.31862408 -6 0.3125 C-5.29875 0.04050781 -4.5975 -0.23148437 -3.875 -0.51171875 C-2 -1 -2 -1 0 0 Z " fill="#636363" transform="translate(283,373)"/>
<path d="M0 0 C0.33 0 0.66 0 1 0 C1.34615998 5.65394631 0.43425238 9.03006806 -2 14 C-2.33 14 -2.66 14 -3 14 C-2.48594831 9.03083364 -1.76615118 4.70973649 0 0 Z " fill="#919191" transform="translate(150,341)"/>
<path d="M0 0 C0.66 0 1.32 0 2 0 C2.17835515 4.54805635 1.99785435 7.8794254 0 12 C-0.33 12 -0.66 12 -1 12 C-1.08159574 7.83861737 -0.98248524 4.0527516 0 0 Z " fill="#696969" transform="translate(368,305)"/>
<path d="M0 0 C3.875 1.875 3.875 1.875 5 3 C5.04080783 4.99958364 5.04254356 7.00045254 5 9 C3.02 9.99 3.02 9.99 1 11 C1.20625 9.9275 1.4125 8.855 1.625 7.75 C1.9876191 4.12380904 1.98362069 2.91708924 0 0 Z " fill="#CDCDCD" transform="translate(319,280)"/>
<path d="M0 0 C5.445 1.485 5.445 1.485 11 3 C11 3.33 11 3.66 11 4 C3.57142857 4.14285714 3.57142857 4.14285714 0 3 C0 2.01 0 1.02 0 0 Z " fill="#B1B1B1" transform="translate(172,246)"/>
<path d="M0 0 C4.03520597 1.58962659 8.01811282 3.28232318 12 5 C12 5.33 12 5.66 12 6 C6.73628638 6.50130606 4.0909066 5.31168629 0 2 C0 1.34 0 0.68 0 0 Z " fill="#D6D6D6" transform="translate(351,275)"/>
<path d="M0 0 C6.4 0.49230769 6.4 0.49230769 9.4375 3.0625 C10.2109375 4.0215625 10.2109375 4.0215625 11 5 C7.80389448 5 6.58282374 4.45328458 3.8125 3 C3.09707031 2.62875 2.38164062 2.2575 1.64453125 1.875 C1.10183594 1.58625 0.55914062 1.2975 0 1 C0 0.67 0 0.34 0 0 Z " fill="#E3E3E3" transform="translate(307,157)"/>
<path d="M0 0 C3.28788824 3.11016455 5.83735988 6.01618925 8 10 C4.20401451 8.50871999 2.28279601 6.34266559 0 3 C0 2.01 0 1.02 0 0 Z " fill="#F6F6F6" transform="translate(211,156)"/>
<path d="M0 0 C0.33 0 0.66 0 1 0 C0.67 2.97 0.34 5.94 0 9 C-0.66 9 -1.32 9 -2 9 C-2.33 9.99 -2.66 10.98 -3 12 C-2.49202991 7.6822542 -1.80317221 3.96697886 0 0 Z " fill="#858585" transform="translate(61,335)"/>
<path d="M0 0 C-0.33 0.99 -0.66 1.98 -1 3 C-3.64 3 -6.28 3 -9 3 C-9.33 2.34 -9.66 1.68 -10 1 C-2.25 0 -2.25 0 0 0 Z " fill="#7C7C7C" transform="translate(378,382)"/>
<path d="M0 0 C-1.98 0.66 -3.96 1.32 -6 2 C-6 2.66 -6 3.32 -6 4 C-6.99 3.67 -7.98 3.34 -9 3 C-9 2.01 -9 1.02 -9 0 C-2.25 -1.125 -2.25 -1.125 0 0 Z " fill="#303030" transform="translate(271,369)"/>
<path d="M0 0 C3.81684226 1.55500981 6.19195732 4.03595495 9 7 C8.67 7.66 8.34 8.32 8 9 C6.66079162 7.88200014 5.32877444 6.75538103 4 5.625 C2.88625 4.68527344 2.88625 4.68527344 1.75 3.7265625 C1.1725 3.15679687 0.595 2.58703125 0 2 C0 1.34 0 0.68 0 0 Z " fill="#E2E2E2" transform="translate(349,245)"/>
<path d="M0 0 C4.7517398 0.43197635 6.92000054 1.32769295 10 5 C6.05140217 4.4359146 3.29120954 3.2568294 0 1 C0 0.67 0 0.34 0 0 Z " fill="#E5E5E5" transform="translate(338,239)"/>
<path d="M0 0 C1.32 0.33 2.64 0.66 4 1 C4 3.64 4 6.28 4 9 C2 8 2 8 1.3671875 6.15234375 C1.20476562 5.42144531 1.04234375 4.69054687 0.875 3.9375 C0.70742188 3.20402344 0.53984375 2.47054688 0.3671875 1.71484375 C0.24601562 1.14894531 0.12484375 0.58304687 0 0 Z " fill="#CCCCCC" transform="translate(405,358)"/>
<path d="M0 0 C0.66 0.66 1.32 1.32 2 2 C1.319375 2.5259375 1.319375 2.5259375 0.625 3.0625 C-1.64661334 5.77096206 -2.16798854 8.60795328 -3 12 C-3.33 12 -3.66 12 -4 12 C-4.50423019 6.70558305 -3.18923033 4.18586481 0 0 Z " fill="#575757" transform="translate(161,360)"/>
<path d="M0 0 C3 1 3 1 4.75 3.3125 C6 6 6 6 5 10 C3.35 6.7 1.7 3.4 0 0 Z " fill="#D0D0D0" transform="translate(362,243)"/>
<path d="M0 0 C3.34726719 1.11575573 3.62079748 1.51344622 5.25 4.4375 C5.8275 5.613125 6.405 6.78875 7 8 C6.67 8.66 6.34 9.32 6 10 C4.99421411 8.71283353 3.99553202 7.42011342 3 6.125 C2.443125 5.40570313 1.88625 4.68640625 1.3125 3.9453125 C0 2 0 2 0 0 Z " fill="#CFCFCF" transform="translate(203,161)"/>
<path d="M0 0 C0.598125 0.309375 1.19625 0.61875 1.8125 0.9375 C4.08956772 2.10209704 4.08956772 2.10209704 7 3 C7.33 2.34 7.66 1.68 8 1 C8.33 1.99 8.66 2.98 9 4 C7.35 4.33 5.7 4.66 4 5 C2.68 3.35 1.36 1.7 0 0 Z " fill="#D4D4D4" transform="translate(274,305)"/>
<path d="M0 0 C3.55780196 0.60990891 6.6828589 1.5783681 10 3 C10 3.33 10 3.66 10 4 C8.72125 3.896875 7.4425 3.79375 6.125 3.6875 C5.04605469 3.60048828 5.04605469 3.60048828 3.9453125 3.51171875 C2 3 2 3 0 0 Z " fill="#BDBDBD" transform="translate(243,270)"/>
<path d="M0 0 C1 2 1 2 0.25 4.5625 C-1 7 -1 7 -4 8 C-2.87548273 5.0280615 -1.77706209 2.66559313 0 0 Z " fill="#8A8A8A" transform="translate(69,321)"/>
<path d="M0 0 C3.36591866 1.44253657 5.51047079 3.33264727 8 6 C4.65750371 5.40312566 2.53563658 4.26396123 0 2 C0 1.34 0 0.68 0 0 Z " fill="#EAEAEA" transform="translate(292,231)"/>
</svg>
