<?xml version="1.0" encoding="UTF-8"?>
<svg version="1.1" xmlns="http://www.w3.org/2000/svg" width="275" height="207">
<path d="M0 0 C90.75 0 181.5 0 275 0 C275 68.31 275 136.62 275 207 C184.25 207 93.5 207 0 207 C0 138.69 0 70.38 0 0 Z " fill="#FDFDFD" transform="translate(0,0)"/>
<path d="M0 0 C2.20703125 0.12109375 2.20703125 0.12109375 5 1 C6.79288043 3.00380754 8.21510517 4.84343341 9.6875 7.0625 C10.33041992 7.99437134 10.33041992 7.99437134 10.98632812 8.94506836 C14.13558243 13.56148438 17.07501399 18.30219476 20 23.0625 C29.42518541 38.39038251 41.13349732 51.46529825 54 64 C57.59391114 62.66511872 60.75490696 61.03977277 64 59 C63.04480469 58.17757812 62.08960938 57.35515625 61.10546875 56.5078125 C57.71288414 53.58213774 54.33059341 50.64484022 50.95361328 47.70117188 C49.75613549 46.6584294 48.55698198 45.61760273 47.35498047 44.58007812 C40.44702063 38.6063636 34.49407406 32.29974169 29 25 C28.44957031 24.30003906 27.89914063 23.60007812 27.33203125 22.87890625 C24.14387445 18.44049188 23.27576713 14.73716933 23.578125 9.26953125 C24.20323355 5.90667879 25.43231284 4.22070241 28 2 C37.83615809 -3.108281 52.1630745 -0.34467783 62.27734375 2.73828125 C63.50582031 3.15464844 64.73429687 3.57101563 66 4 C66.66273926 4.21962402 67.32547852 4.43924805 68.00830078 4.66552734 C92.16660366 12.76414703 92.16660366 12.76414703 97 21 C97.1875 24.75 97.1875 24.75 97 28 C95.375 28.6875 95.375 28.6875 93 29 C90.25 27.8125 90.25 27.8125 87 26 C69.64780178 16.83660995 47.8561515 9.36050125 28 11 C29.07440186 25.32535815 44.20282848 36.60509661 54.29833984 45.47119141 C55.98160216 46.98347098 57.59191563 48.55225424 59.20703125 50.13671875 C68.31589845 58.63532462 76.5301069 59.39065522 88.68310547 59.86083984 C98.99366996 60.48012559 108.34274044 65.24999868 116 72 C117.94921875 74.62109375 117.94921875 74.62109375 119.6875 77.4375 C120.26886719 78.36433594 120.85023438 79.29117188 121.44921875 80.24609375 C123.81048632 84.43927671 125.28293367 87.8380167 125.25 92.6875 C125.25773437 93.83798828 125.25773437 93.83798828 125.265625 95.01171875 C125 97 125 97 123 99 C116.82061699 98.86966562 113.17824299 96.5699679 108.375 93.0625 C107.33013428 92.3209668 107.33013428 92.3209668 106.26416016 91.56445312 C98.45424679 85.98110488 90.69654004 80.25400378 83.46875 73.9296875 C76.12620756 67.38561986 76.12620756 67.38561986 66.75 65.25 C64.12734247 65.51381762 62.35177836 65.82411082 60 67 C61.54572776 70.81628832 63.88771245 72.97025743 66.9375 75.6875 C67.42331543 76.12247803 67.90913086 76.55745605 68.40966797 77.00561523 C71.73601404 79.95861779 75.15805016 82.77524836 78.625 85.5625 C93.16075832 97.34147657 93.16075832 97.34147657 94 103 C89.36588681 106.9211727 89.36588681 106.9211727 86.03710938 107.11328125 C79.82332244 106.41843065 74.6185541 104.48934664 68.9375 101.9375 C68.07189453 101.56044922 67.20628906 101.18339844 66.31445312 100.79492188 C64.20460655 99.87404961 62.10029815 98.94239632 60 98 C61.26746453 99.7732461 62.53910235 101.54350975 63.8125 103.3125 C64.52019531 104.29863281 65.22789062 105.28476563 65.95703125 106.30078125 C67.54630837 108.40057187 69.07457629 110.22034969 71 112 C70.505 113.485 70.505 113.485 70 115 C66.29882016 113.50465725 64.44351394 111.42893477 62 108.3125 C61.34 107.48363281 60.68 106.65476562 60 105.80078125 C58 103 58 103 56.4855957 99.56616211 C53.70067853 94.68286806 49.37004968 93.71945474 44.23046875 92.140625 C42.79892204 91.66674347 42.79892204 91.66674347 41.3384552 91.18328857 C38.29540272 90.18137135 35.24245981 89.21492699 32.1875 88.25 C29.1461742 87.26314196 26.10723997 86.26920144 23.06867981 85.27386475 C21.18092641 84.65838689 19.29110605 84.0492012 17.39897156 83.44732666 C12.46479538 81.86896311 7.72330268 80.13037738 3 78 C2.91868537 76.56344146 2.86066441 75.1255517 2.8125 73.6875 C2.76029297 72.48673828 2.76029297 72.48673828 2.70703125 71.26171875 C3.07339666 68.43337781 3.78102068 67.73591281 6 66 C12.83641612 65.19639328 19.63841987 68.55581364 25.75 71.1875 C26.70922363 71.59025146 27.66844727 71.99300293 28.65673828 72.40795898 C35.84471931 75.44604667 42.96740247 78.61639176 50 82 C49.98839844 81.32453125 49.97679687 80.6490625 49.96484375 79.953125 C49.95582031 79.06109375 49.94679687 78.1690625 49.9375 77.25 C49.92589844 76.36828125 49.91429687 75.4865625 49.90234375 74.578125 C50 72 50 72 50.71704102 70.078125 C51.25392829 67.90341605 51.25392829 67.90341605 49.6640625 66.11230469 C48.99117187 65.47196289 48.31828125 64.83162109 47.625 64.171875 C46.88636719 63.45386719 46.14773437 62.73585937 45.38671875 61.99609375 C44.59910156 61.25488281 43.81148437 60.51367188 43 59.75 C41.47672221 58.28900273 39.9558673 56.82547492 38.4375 55.359375 C37.68903809 54.63693604 36.94057617 53.91449707 36.16943359 53.17016602 C33.48375991 50.48358563 30.99763981 47.66249135 28.52832031 44.77783203 C26.54676575 42.47277128 24.45877328 40.27512852 22.375 38.0625 C1.67125884 15.2978964 1.67125884 15.2978964 -1 5 C-0.6015625 2.234375 -0.6015625 2.234375 0 0 Z " fill="#090909" transform="translate(64,7)"/>
<path d="M0 0 C8.20962668 7.48524785 9.61682809 19.95572325 10.38037109 30.44604492 C10.53954269 34.02642636 10.6566402 37.60481774 10.75 41.1875 C10.80800781 43.03794922 10.80800781 43.03794922 10.8671875 44.92578125 C10.9603276 47.92954937 11.04614531 50.93332878 11.125 53.9375 C11.36734375 52.95652344 11.6096875 51.97554687 11.859375 50.96484375 C12.75326371 47.35681666 13.65929351 43.75193283 14.56933594 40.14794922 C15.07591857 38.13274749 15.57359553 36.11531237 16.0703125 34.09765625 C17.79428216 27.31043115 19.77669781 20.65722923 22.125 14.0625 C22.48053955 13.01739258 22.48053955 13.01739258 22.84326172 11.95117188 C23.5625 10.0078125 23.5625 10.0078125 25.125 6.9375 C27.3125 5.9921875 27.3125 5.9921875 29.125 5.9375 C28.30103855 9.5736777 27.0878021 13.03923314 25.875 16.5625 C19.25325433 36.3438264 15.18897744 56.51313347 11.125 76.9375 C10.72284863 78.94795516 10.32053788 80.95837845 9.91796875 82.96875 C9.65357955 84.29165342 9.38922555 85.61456388 9.125 86.9375 C7.805 86.9375 6.485 86.9375 5.125 86.9375 C5.13166183 86.22134521 5.13832367 85.50519043 5.14518738 84.76733398 C5.20585849 77.94407927 5.25125436 71.12086602 5.28043652 64.29740906 C5.29594485 60.79125249 5.316903 57.28532288 5.35131836 53.77929688 C6.81256386 26.97217645 6.81256386 26.97217645 -2.875 2.9375 C-6.47361529 1.13819235 -10.13619186 1.93593192 -13.875 2.9375 C-26.01525178 9.22274591 -34.28592229 20.26554524 -38.875 32.9375 C-39.82838117 38.45024824 -39.81378307 43.72268532 -37.4375 48.875 C-33.31468788 53.80226327 -28.546358 56.32824291 -22.3125 57.75 C-21.1059375 57.8428125 -21.1059375 57.8428125 -19.875 57.9375 C-19.875 58.5975 -19.875 59.2575 -19.875 59.9375 C-27.68740283 59.90488036 -32.97492677 58.13919722 -38.875 52.9375 C-43.13361116 48.0436264 -44.30836592 43.15582907 -44.20703125 36.80859375 C-42.89649467 25.47630685 -35.40239226 14.45618657 -26.80078125 7.25390625 C-18.62665024 0.82342308 -10.4898207 -3.87667287 0 0 Z " fill="#121212" transform="translate(48.875,111.0625)"/>
<path d="M0 0 C0.78375 0.04125 1.5675 0.0825 2.375 0.125 C1.735625 0.8675 1.09625 1.61 0.4375 2.375 C-1.40833407 4.8361121 -2.18569174 6.15966926 -2.625 9.125 C-1.8825 8.465 -1.14 7.805 -0.375 7.125 C2.375 5.125 2.375 5.125 6.375 5.125 C6.87 9.085 6.87 9.085 7.375 13.125 C8.344375 12.361875 9.31375 11.59875 10.3125 10.8125 C10.85777344 10.38324219 11.40304688 9.95398438 11.96484375 9.51171875 C13.64655077 8.06816909 13.64655077 8.06816909 14.375 5.125 C15.365 5.125 16.355 5.125 17.375 5.125 C17.87 8.095 17.87 8.095 18.375 11.125 C19.096875 10.320625 19.81875 9.51625 20.5625 8.6875 C23.40015689 6.10207928 24.64666147 5.44457187 28.375 5.125 C29.035 6.445 29.695 7.765 30.375 9.125 C34.80235644 8.86456727 36.79857272 8.70142728 40 5.5 C40.78375 4.71625 41.5675 3.9325 42.375 3.125 C45.1875 3.3125 45.1875 3.3125 47.375 4.125 C47.87 6.6 47.87 6.6 48.375 9.125 C46.725 9.785 45.075 10.445 43.375 11.125 C49.08471741 10.75704043 53.30000676 9.97194743 58.375 7.125 C59.035 7.125 59.695 7.125 60.375 7.125 C59.375 10.125 59.375 10.125 56.86328125 11.51171875 C55.81527344 11.94097656 54.76726562 12.37023437 53.6875 12.8125 C52.65238281 13.24949219 51.61726563 13.68648437 50.55078125 14.13671875 C47.22693103 15.17107804 44.82885505 15.53559815 41.375 15.125 C40.35400645 14.14644383 39.35160956 13.14785569 38.375 12.125 C36.20658586 12.09192847 36.20658586 12.09192847 33.9375 12.625 C29.66272479 13.28640659 29.66272479 13.28640659 26.8125 11.6875 C26.338125 11.171875 25.86375 10.65625 25.375 10.125 C24.653125 10.970625 23.93125 11.81625 23.1875 12.6875 C20.375 15.125 20.375 15.125 17.6875 15.0625 C15.375 14.125 15.375 14.125 13.375 12.125 C6.38559244 17.95227329 4.49818935 23.2078952 3.31933594 31.87133789 C2.3698809 38.83529677 0.27861754 44.26957368 -3.625 50.125 C-6.6875 50.375 -6.6875 50.375 -9.625 50.125 C-11.29221196 48.45778804 -10.95525454 46.54440293 -11.0625 44.25 C-11.01836567 35.78724278 -6.53855828 29.67641104 -1.625 23.125 C0.28094312 19.20722804 0.8678767 15.43554801 1.375 11.125 C0.4675 11.310625 -0.44 11.49625 -1.375 11.6875 C-4.625 12.125 -4.625 12.125 -6.55078125 11.640625 C-10.26829971 10.71649612 -13.93118221 11.23636161 -17.625 12.125 C-19.3324998 13.40562485 -21.00763741 14.7322711 -22.625 16.125 C-25.3125 16.5625 -25.3125 16.5625 -27.625 16.125 C-30.08311625 12.43782562 -29.93618164 10.48154296 -29.625 6.125 C-28.965 5.135 -28.305 4.145 -27.625 3.125 C-26.305 3.455 -24.985 3.785 -23.625 4.125 C-24.615 5.61 -24.615 5.61 -25.625 7.125 C-25.79213569 9.75031524 -25.79213569 9.75031524 -25.625 12.125 C-24.635 12.125 -23.645 12.125 -22.625 12.125 C-21.87573929 8.46194766 -21.3869986 5.70144848 -22.625 2.125 C-20.975 2.125 -19.325 2.125 -17.625 2.125 C-16.635 4.105 -15.645 6.085 -14.625 8.125 C-11.22419423 8.02092083 -11.22419423 8.02092083 -7.625 7.125 C-5.74448415 4.76910004 -5.74448415 4.76910004 -4.625 2.125 C-2.625 0.125 -2.625 0.125 0 0 Z " fill="#0D0D0D" transform="translate(100.625,151.875)"/>
<path d="M0 0 C2.625 0.375 2.625 0.375 5 1 C5.64193121 13.09683709 4.5600602 24.005027 1.77856445 35.8125 C0.24288559 42.36472983 -1.11293246 48.39708606 1 55 C3.95554196 54.69841409 5.4694875 54.47043294 8 53 C10.71126862 49.54025375 12.88360519 45.84682096 15 42 C16.32 42.33 17.64 42.66 19 43 C18.34 43.99 17.68 44.98 17 46 C16.83286431 48.62531524 16.83286431 48.62531524 17 51 C17.99 51 18.98 51 20 51 C20.74926071 47.33694766 21.2380014 44.57644848 20 41 C21.65 41 23.3 41 25 41 C25.99 42.98 26.98 44.96 28 47 C30.31 46.67 32.62 46.34 35 46 C35.66 44.02 36.32 42.04 37 40 C37.99 40 38.98 40 40 40 C39.67 41.65 39.34 43.3 39 45 C40.98 44.67 42.96 44.34 45 44 C44.67 47.63 44.34 51.26 44 55 C47.32717001 52.91084674 49.95429167 51.04570833 52.75 48.25 C53.4925 47.5075 54.235 46.765 55 46 C55.66 46 56.32 46 57 46 C56.28906861 50.6674191 53.62399844 52.59026791 50.13671875 55.5078125 C47.41314825 57.40983065 45.32423565 58.07914847 42 58 C40 56 40 56 39.8046875 54.0546875 C39.86979167 52.03645833 39.93489583 50.01822917 40 48 C39.195625 48.309375 38.39125 48.61875 37.5625 48.9375 C34.62664361 49.81310629 32.43582886 50.16942896 29.4375 50.375 C25.15639498 50.7550646 23.2677776 52.1860804 20 55 C16.20070529 55.54275639 15.2756917 55.18379446 12 53 C11.13375 53.825 10.2675 54.65 9.375 55.5 C7.00294935 57.45806068 6.00288561 57.99942288 2.875 58.625 C0 58 0 58 -2.375 55.75 C-4 53 -4 53 -4 49 C-4.99 49.495 -4.99 49.495 -6 50 C-7.43852217 49.96891209 -8.87641591 49.90180271 -10.3125 49.8125 C-14.87480709 49.7322034 -16.57549523 50.95599576 -20 54 C-22.8125 54.25 -22.8125 54.25 -25 54 C-24.74126898 49.60157266 -24.43893111 47.50477078 -21.5 44.125 C-20.675 43.42375 -19.85 42.7225 -19 42 C-18.505 41.505 -18.505 41.505 -18 41 C-16.33382885 40.95936168 -14.66611905 40.957279 -13 41 C-13 41.66 -13 42.32 -13 43 C-13.804375 43.474375 -14.60875 43.94875 -15.4375 44.4375 C-18.2918076 45.79983672 -18.2918076 45.79983672 -19 49 C-18.44828125 48.49855469 -17.8965625 47.99710938 -17.328125 47.48046875 C-14.43176224 45.63865418 -13.09830201 45.82787734 -9.75 46.3125 C-8.85796875 46.43238281 -7.9659375 46.55226562 -7.046875 46.67578125 C-6.37140625 46.78277344 -5.6959375 46.88976562 -5 47 C-5.01571045 46.24082275 -5.0314209 45.48164551 -5.04760742 44.69946289 C-5.59169626 14.35675319 -5.59169626 14.35675319 -2 2 C-1.34 1.34 -0.68 0.68 0 0 Z " fill="#0E0E0E" transform="translate(212,113)"/>
<path d="M0 0 C12.66840374 0.45244299 25.96148731 5.58102716 34.734375 14.828125 C37.0485595 17.45086743 39.05719807 20.0857971 41 23 C40.625 25.6875 40.625 25.6875 40 28 C34.27874385 26.53810174 30.2765102 23.59627627 25.625 20.125 C24.84785645 19.55362305 24.07071289 18.98224609 23.27001953 18.39355469 C20.84080223 16.60350151 18.42030152 14.80208291 16 13 C14.42214266 11.83557472 12.84402438 10.67150293 11.265625 9.5078125 C9.80147203 8.42269935 8.33790459 7.33679558 6.875 6.25 C6.18229004 5.73711426 5.48958008 5.22422852 4.77587891 4.69580078 C3.1649695 3.48875201 1.57938431 2.24801485 0 1 C0 0.67 0 0.34 0 0 Z " fill="#F3F3F3" transform="translate(144,73)"/>
<path d="M0 0 C2.8125 0.1875 2.8125 0.1875 5 1 C5.495 3.475 5.495 3.475 6 6 C4.35 6.66 2.7 7.32 1 8 C6.70971741 7.63204043 10.92500676 6.84694743 16 4 C16.66 4 17.32 4 18 4 C17 7 17 7 14.48828125 8.38671875 C13.44027344 8.81597656 12.39226562 9.24523437 11.3125 9.6875 C10.27738281 10.12449219 9.24226563 10.56148437 8.17578125 11.01171875 C4.85193103 12.04607804 2.45385505 12.41059815 -1 12 C-2.02099355 11.02144383 -3.02339044 10.02285569 -4 9 C-6.16841414 8.96692847 -6.16841414 8.96692847 -8.4375 9.5 C-12.71227521 10.16140659 -12.71227521 10.16140659 -15.5625 8.5625 C-16.036875 8.046875 -16.51125 7.53125 -17 7 C-17.721875 7.845625 -18.44375 8.69125 -19.1875 9.5625 C-22 12 -22 12 -24.8125 11.8125 C-25.534375 11.544375 -26.25625 11.27625 -27 11 C-27.12375 10.360625 -27.2475 9.72125 -27.375 9.0625 C-27.58125 8.381875 -27.7875 7.70125 -28 7 C-28.66 6.67 -29.32 6.34 -30 6 C-29.34 4.68 -28.68 3.36 -28 2 C-27.01 2 -26.02 2 -25 2 C-24.67 3.98 -24.34 5.96 -24 8 C-23.278125 7.195625 -22.55625 6.39125 -21.8125 5.5625 C-18.97484311 2.97707928 -17.72833853 2.31957187 -14 2 C-13.34 3.32 -12.68 4.64 -12 6 C-7.57264356 5.73956727 -5.57642728 5.57642728 -2.375 2.375 C-1.59125 1.59125 -0.8075 0.8075 0 0 Z " fill="#2D2D2D" transform="translate(143,155)"/>
<path d="M0 0 C0.99 0 1.98 0 3 0 C2.67 1.65 2.34 3.3 2 5 C3.98 4.67 5.96 4.34 8 4 C7.67 7.63 7.34 11.26 7 15 C10.32717001 12.91084674 12.95429167 11.04570833 15.75 8.25 C16.86375 7.13625 16.86375 7.13625 18 6 C18.66 6 19.32 6 20 6 C19.28906861 10.6674191 16.62399844 12.59026791 13.13671875 15.5078125 C10.41314825 17.40983065 8.32423565 18.07914847 5 18 C3 16 3 16 2.8046875 14.0546875 C2.86979167 12.03645833 2.93489583 10.01822917 3 8 C2.195625 8.309375 1.39125 8.61875 0.5625 8.9375 C-3.03183689 10.00949521 -6.22632468 10.35926782 -9.94921875 10.55859375 C-12.46383275 11.09983448 -13.26735813 12.16835002 -15 14 C-17.1875 13.6875 -17.1875 13.6875 -19 13 C-18.484375 12.505 -17.96875 12.01 -17.4375 11.5 C-15.2828919 7.75285548 -16.23154846 5.19155387 -17 1 C-15.35 1 -13.7 1 -12 1 C-11.01 2.98 -10.02 4.96 -9 7 C-5.535 6.505 -5.535 6.505 -2 6 C-1.34 4.02 -0.68 2.04 0 0 Z " fill="#151515" transform="translate(249,153)"/>
<path d="M0 0 C0.78375 0.04125 1.5675 0.0825 2.375 0.125 C1.735625 0.8675 1.09625 1.61 0.4375 2.375 C-1.40833407 4.8361121 -2.18569174 6.15966926 -2.625 9.125 C-0.975 7.805 0.675 6.485 2.375 5.125 C3.035 5.455 3.695 5.785 4.375 6.125 C3.385 7.115 2.395 8.105 1.375 9.125 C1.705 9.455 2.035 9.785 2.375 10.125 C2.41563832 11.79117115 2.417721 13.45888095 2.375 15.125 C2.045 13.805 1.715 12.485 1.375 11.125 C0.4675 11.310625 -0.44 11.49625 -1.375 11.6875 C-4.625 12.125 -4.625 12.125 -6.55078125 11.640625 C-10.26829971 10.71649612 -13.93118221 11.23636161 -17.625 12.125 C-19.3324998 13.40562485 -21.00763741 14.7322711 -22.625 16.125 C-25.3125 16.5625 -25.3125 16.5625 -27.625 16.125 C-30.08311625 12.43782562 -29.93618164 10.48154296 -29.625 6.125 C-28.965 5.135 -28.305 4.145 -27.625 3.125 C-26.305 3.455 -24.985 3.785 -23.625 4.125 C-24.615 5.61 -24.615 5.61 -25.625 7.125 C-25.79213569 9.75031524 -25.79213569 9.75031524 -25.625 12.125 C-24.635 12.125 -23.645 12.125 -22.625 12.125 C-21.87573929 8.46194766 -21.3869986 5.70144848 -22.625 2.125 C-20.975 2.125 -19.325 2.125 -17.625 2.125 C-16.635 4.105 -15.645 6.085 -14.625 8.125 C-11.22419423 8.02092083 -11.22419423 8.02092083 -7.625 7.125 C-5.74448415 4.76910004 -5.74448415 4.76910004 -4.625 2.125 C-2.625 0.125 -2.625 0.125 0 0 Z " fill="#090909" transform="translate(100.625,151.875)"/>
<path d="M0 0 C3.03867819 1.34603045 5.00385612 2.80424173 7.234375 5.2578125 C8.09482422 6.19560547 8.09482422 6.19560547 8.97265625 7.15234375 C9.55917969 7.80332031 10.14570313 8.45429687 10.75 9.125 C11.35199219 9.78371094 11.95398438 10.44242188 12.57421875 11.12109375 C14.05480215 12.74268509 15.52977125 14.36902454 17 16 C13.10949131 17.29683623 11.31471478 16.41347964 7.4375 15.1875 C6.28121094 14.83042969 5.12492187 14.47335938 3.93359375 14.10546875 C1 13 1 13 -1 11 C-1.23046875 8.90625 -1.23046875 8.90625 -1.1875 6.5 C-1.18105469 5.7059375 -1.17460938 4.911875 -1.16796875 4.09375 C-1 2 -1 2 0 0 Z " fill="#EBEBEB" transform="translate(118,79)"/>
<path d="M0 0 C0.99 0 1.98 0 3 0 C3.33 1.98 3.66 3.96 4 6 C4.721875 5.195625 5.44375 4.39125 6.1875 3.5625 C9.02515689 0.97707928 10.27166147 0.31957187 14 0 C14.66 1.32 15.32 2.64 16 4 C18.31 4 20.62 4 23 4 C22.67 4.99 22.34 5.98 22 7 C15.6 8.35384615 15.6 8.35384615 12.5625 6.5625 C12.046875 6.046875 11.53125 5.53125 11 5 C10.278125 5.845625 9.55625 6.69125 8.8125 7.5625 C6 10 6 10 3.1875 9.8125 C2.465625 9.544375 1.74375 9.27625 1 9 C0.87625 8.360625 0.7525 7.72125 0.625 7.0625 C0.315625 6.0415625 0.315625 6.0415625 0 5 C-0.66 4.67 -1.32 4.34 -2 4 C-1.34 2.68 -0.68 1.36 0 0 Z " fill="#181818" transform="translate(115,157)"/>
<path d="M0 0 C0.78375 0.04125 1.5675 0.0825 2.375 0.125 C1.735625 0.8675 1.09625 1.61 0.4375 2.375 C-1.40833407 4.8361121 -2.18569174 6.15966926 -2.625 9.125 C-0.975 7.805 0.675 6.485 2.375 5.125 C3.035 5.455 3.695 5.785 4.375 6.125 C3.385 7.115 2.395 8.105 1.375 9.125 C1.705 9.455 2.035 9.785 2.375 10.125 C2.41563832 11.79117115 2.417721 13.45888095 2.375 15.125 C2.045 13.805 1.715 12.485 1.375 11.125 C0.4675 11.310625 -0.44 11.49625 -1.375 11.6875 C-4.49420955 12.10739359 -5.70407875 11.86612927 -8.625 11.125 C-10.20711573 11.05951508 -11.79170081 11.03921619 -13.375 11.0625 C-14.57382813 11.07603516 -14.57382813 11.07603516 -15.796875 11.08984375 C-16.40015625 11.10144531 -17.0034375 11.11304688 -17.625 11.125 C-17.625 10.795 -17.625 10.465 -17.625 10.125 C-14.985 10.125 -12.345 10.125 -9.625 10.125 C-9.625 9.465 -9.625 8.805 -9.625 8.125 C-8.965 7.795 -8.305 7.465 -7.625 7.125 C-6.60633771 5.46967377 -5.60689187 3.80239862 -4.625 2.125 C-2.625 0.125 -2.625 0.125 0 0 Z " fill="#1C1C1C" transform="translate(100.625,151.875)"/>
<path d="M0 0 C0.66 0 1.32 0 2 0 C1.52389341 4.99911924 -0.03162219 7.97832683 -3 12 C-5.375 11.75 -5.375 11.75 -8 11 C-10.42363044 7.88390372 -10.17392151 4.82627315 -10 1 C-9.01 1.33 -8.02 1.66 -7 2 C-6.67 3.98 -6.34 5.96 -6 8 C-4.01819787 6.20694093 -2.79641779 4.6498386 -1.4375 2.3125 C-0.7259375 1.1678125 -0.7259375 1.1678125 0 0 Z " fill="#171717" transform="translate(186,155)"/>
<path d="M0 0 C1.2065625 0.0309375 1.2065625 0.0309375 2.4375 0.0625 C2.4375 0.7225 2.4375 1.3825 2.4375 2.0625 C1.633125 2.536875 0.82875 3.01125 0 3.5 C-2.8543076 4.86233672 -2.8543076 4.86233672 -3.5625 8.0625 C-2.2425 7.4025 -0.9225 6.7425 0.4375 6.0625 C-0.625 9 -0.625 9 -2.5625 12.0625 C-6.25 12.9375 -6.25 12.9375 -9.5625 13.0625 C-9.30376898 8.66407266 -9.00143111 6.56727078 -6.0625 3.1875 C-4.825 2.135625 -4.825 2.135625 -3.5625 1.0625 C-2.5625 0.0625 -2.5625 0.0625 0 0 Z " fill="#161616" transform="translate(196.5625,153.9375)"/>
<path d="M0 0 C1.65 0 3.3 0 5 0 C5.5878125 1.4540625 5.5878125 1.4540625 6.1875 2.9375 C7.67594887 6.22176391 7.67594887 6.22176391 10.6875 6.875 C11.8321875 6.936875 11.8321875 6.936875 13 7 C13 7.33 13 7.66 13 8 C10.36 8 7.72 8 5 8 C4.773125 8.639375 4.54625 9.27875 4.3125 9.9375 C3 12 3 12 0.375 12.75 C-0.40875 12.8325 -1.1925 12.915 -2 13 C-1.484375 12.34 -0.96875 11.68 -0.4375 11 C1.54941167 6.85340174 0.83335149 4.46979435 0 0 Z " fill="#090909" transform="translate(232,154)"/>
<path d="M0 0 C1.58295119 3.16590238 0.24478836 5.54094275 -0.6875 8.875 C-1.02136719 10.10992187 -1.35523437 11.34484375 -1.69921875 12.6171875 C-3.01202084 16.0312614 -4.22910095 17.67827827 -7 20 C-7.99845784 12.67797581 -4.55325911 7.2403498 -1 1 C-0.67 0.67 -0.34 0.34 0 0 Z " fill="#DBDBDB" transform="translate(100,180)"/>
<path d="M0 0 C0.33 0 0.66 0 1 0 C1.56081859 9.61700032 -0.15190851 18.61653547 -2 28 C-2.33 28 -2.66 28 -3 28 C-3.09378179 21.74788094 -2.78705822 15.70756266 -2.0625 9.5 C-1.97548828 8.69046875 -1.88847656 7.8809375 -1.79882812 7.046875 C-1.12854778 1.12854778 -1.12854778 1.12854778 0 0 Z " fill="#ADADAD" transform="translate(213,119)"/>
<path d="M0 0 C1.32 0.33 2.64 0.66 4 1 C3.01 2.485 3.01 2.485 2 4 C1.58333333 6.5 1.58333333 6.5 2 9 C3.4166747 10.7511573 3.4166747 10.7511573 5 12 C5 12.33 5 12.66 5 13 C2.625 13.1875 2.625 13.1875 0 13 C-2.45811625 9.31282562 -2.31118164 7.35654296 -2 3 C-1.34 2.01 -0.68 1.02 0 0 Z " fill="#141414" transform="translate(73,155)"/>
<path d="M0 0 C1.32 0 2.64 0 4 0 C5.80411967 2.75924185 6.0127245 3.88972103 5.625 7.25 C5.41875 8.1575 5.2125 9.065 5 10 C3.0625 10.5625 3.0625 10.5625 1 11 C0 10 0 10 -0.1875 7.625 C0 5 0 5 2 2 C1.34 1.34 0.68 0.68 0 0 Z " fill="#E0E0E0" transform="translate(228,154)"/>
<path d="M0 0 C1.32 0 2.64 0 4 0 C5.80411967 2.75924185 6.0127245 3.88972103 5.625 7.25 C5.41875 8.1575 5.2125 9.065 5 10 C3.0625 10.5625 3.0625 10.5625 1 11 C0 10 0 10 -0.1875 7.625 C0 5 0 5 2 2 C1.34 1.34 0.68 0.68 0 0 Z " fill="#E0E0E0" transform="translate(74,154)"/>
<path d="M0 0 C0.66 0 1.32 0 2 0 C1.46324097 3.85103301 -0.11600923 5.31797587 -3.0625 7.75 C-4.16271484 8.67039063 -4.16271484 8.67039063 -5.28515625 9.609375 C-5.85105469 10.06828125 -6.41695313 10.5271875 -7 11 C-7.66 10.67 -8.32 10.34 -9 10 C-9 9.34 -9 8.68 -9 8 C-7.28515625 6.30859375 -7.28515625 6.30859375 -5.0625 4.4375 C-3.96615234 3.50744141 -3.96615234 3.50744141 -2.84765625 2.55859375 C-2.23792969 2.04425781 -1.62820313 1.52992188 -1 1 C-0.67 0.67 -0.34 0.34 0 0 Z " fill="#202020" transform="translate(267,159)"/>
<path d="M0 0 C-1 3 -1 3 -3.8125 4.75 C-7.13982105 6.05483179 -7.79584277 6.02866653 -11 5 C-9.54462432 4.16151196 -8.08559627 3.32936066 -6.625 2.5 C-5.81289062 2.0359375 -5.00078125 1.571875 -4.1640625 1.09375 C-2 0 -2 0 0 0 Z " fill="#1C1C1C" transform="translate(161,159)"/>
<path d="M0 0 C0 0.66 0 1.32 0 2 C-2.97 3.32 -5.94 4.64 -9 6 C-8.3125 3.625 -8.3125 3.625 -7 1 C-2.71428571 -1.35714286 -2.71428571 -1.35714286 0 0 Z " fill="#212121" transform="translate(38,111)"/>
<path d="M0 0 C0.66 0 1.32 0 2 0 C0.63016497 3.16115776 0.0109362 3.9927092 -3 6 C-6.1875 6.125 -6.1875 6.125 -9 6 C-9 5.67 -9 5.34 -9 5 C-8.2575 4.9175 -7.515 4.835 -6.75 4.75 C-3.47638903 3.85719701 -2.28034682 2.43761211 0 0 Z " fill="#252525" transform="translate(221,165)"/>
<path d="M0 0 C0.66 0.33 1.32 0.66 2 1 C0.66667905 4.99996286 -1.4957827 5.83782337 -5 8 C-3.8141763 4.62496331 -2.72426311 2.35277269 0 0 Z " fill="#D7D7D7" transform="translate(196,156)"/>
<path d="M0 0 C0.99 0.33 1.98 0.66 3 1 C3 2.32 3 3.64 3 5 C1.68 4.67 0.36 4.34 -1 4 C-0.67 3.34 -0.34 2.68 0 2 C-0.66 1.67 -1.32 1.34 -2 1 C-1.34 0.67 -0.68 0.34 0 0 Z " fill="#0B0B0B" transform="translate(146,156)"/>
</svg>
